<?xml version="1.0" encoding="UTF-8"?>
<svg width="379px" height="469px" viewBox="0 0 379 469" version="1.1" xmlns="http://www.w3.org/2000/svg" xmlns:xlink="http://www.w3.org/1999/xlink">
    <!-- Generator: Sketch 53.2 (72643) - https://sketchapp.com -->
    <title>Custom Preset Copy 2</title>
    <desc>Created with Sketch.</desc>
    <g id="Custom-Preset-Copy-2" stroke="none" stroke-width="1" fill="none" fill-rule="evenodd">
        <path d="M83.5,274 L83.5,301.25" id="Line" stroke="#C5C5C5" stroke-width="30" stroke-linecap="round"></path>
        <path d="M83.5,347 L83.5,357" id="Line" stroke="#C5C5C5" stroke-width="30" stroke-linecap="round"></path>
        <path d="M153.5,274 L153.5,346.626453" id="Line" stroke="#C5C5C5" stroke-width="30" stroke-linecap="round"></path>
        <path d="M223.5,274 L223.5,398.626453" id="Line" stroke="#C5C5C5" stroke-width="30" stroke-linecap="round"></path>
        <path d="M292.5,274 L292.5,328.5" id="Line" stroke="#C5C5C5" stroke-width="30" stroke-linecap="round"></path>
        <path d="M344.680368,218 C352.628944,206.044814 357,191.775372 357,176.754967 C357,148.962014 341.925576,124.096128 318.710377,112.017014 L309.163903,107.049883 L310.810564,96.4152203 C311.139508,94.2907934 311.306324,92.1262854 311.306324,89.9337748 C311.306324,67.8571193 294.341863,50.1986755 273.722332,50.1986755 C268.201358,50.1986755 262.873801,51.4488115 257.985741,53.8379048 L247.725437,58.8527425 L240.161149,50.2968094 C223.170854,31.0791609 199.428681,20 173.994071,20 C127.925789,20 89.2198559,56.4609364 84.3411753,104.303027 L83.1065641,116.410067 L71.0049923,117.697171 C42.2871946,120.751551 20,146.290986 20,177.13245 C20,192.60165 25.605777,207.063956 35.3727987,218 L344.680368,218 Z" id="Combined-Shape" stroke="#C5C5C5" stroke-width="30"></path>
        <path d="M223.5,448 L223.5,446" id="Line" stroke="#C5C5C5" stroke-width="30" stroke-linecap="round"></path>
    </g>
</svg>